<svg width="40" height="40" viewBox="0 0 40 40" fill="none" xmlns="http://www.w3.org/2000/svg">
<rect x="0.399088" y="0.399088" width="39.1106" height="39.1106" rx="19.5553" stroke="#EAEAEA" stroke-width="0.798176"/>
<g clip-path="url(#clip0_92_802)">
<g clip-path="url(#clip1_92_802)">
<g clip-path="url(#clip2_92_802)">
<path d="M19.9563 27.3812C24.0559 27.3812 27.3793 24.0579 27.3793 19.9582C27.3793 15.8586 24.0559 12.5352 19.9563 12.5352C15.8566 12.5352 12.5332 15.8586 12.5332 19.9582C12.5332 24.0579 15.8566 27.3812 19.9563 27.3812Z" fill="#EA4C89"/>
<path fill-rule="evenodd" clip-rule="evenodd" d="M19.9554 12.2949C15.7253 12.2949 12.293 15.7273 12.293 19.9574C12.293 24.1876 15.7253 27.6199 19.9554 27.6199C24.1773 27.6199 27.6179 24.1876 27.6179 19.9574C27.6179 15.7273 24.1773 12.2949 19.9554 12.2949ZM25.0167 15.827C25.9309 16.9406 26.4794 18.3617 26.496 19.8992C26.2799 19.8577 24.1191 19.4172 21.9417 19.6915C21.8919 19.5834 21.8503 19.4671 21.8004 19.3507C21.6674 19.0349 21.5178 18.7108 21.3683 18.4033C23.7784 17.4227 24.8754 16.0098 25.0167 15.827ZM19.9554 13.4252C21.6176 13.4252 23.1385 14.0485 24.2937 15.0707C24.1773 15.2369 23.1883 16.5583 20.8613 17.4309C19.7892 15.4613 18.6008 13.849 18.418 13.5997C18.9083 13.4834 19.4236 13.4252 19.9554 13.4252ZM17.1714 14.0402C17.3459 14.2729 18.5094 15.8935 19.5981 17.8215C16.5397 18.636 13.8388 18.6194 13.5479 18.6194C13.9717 16.5916 15.343 14.9045 17.1714 14.0402ZM13.4066 19.9657C13.4066 19.8992 13.4066 19.8328 13.4066 19.7663C13.6892 19.7746 16.8639 19.8161 20.13 18.8355C20.3211 19.2011 20.4956 19.5751 20.6619 19.9491C20.5787 19.974 20.4873 19.999 20.4042 20.0239C17.0301 21.1126 15.235 24.0878 15.0854 24.3372C14.0465 23.182 13.4066 21.6445 13.4066 19.9657ZM19.9554 26.5063C18.4429 26.5063 17.0467 25.991 15.9414 25.1266C16.0577 24.8857 17.3874 22.326 21.0774 21.0378C21.094 21.0295 21.1023 21.0295 21.1189 21.0212C22.0415 23.4063 22.4155 25.4092 22.5152 25.9827C21.7256 26.3234 20.8613 26.5063 19.9554 26.5063ZM23.6039 25.3843C23.5374 24.9854 23.1883 23.074 22.3323 20.722C24.3851 20.3978 26.1802 20.9297 26.4046 21.0046C26.122 22.8246 25.0748 24.3953 23.6039 25.3843Z" fill="#C32361"/>
</g>
</g>
</g>
<defs>
<clipPath id="clip0_92_802">
<rect width="15.9635" height="15.9635" fill="white" transform="translate(11.9727 11.9707)"/>
</clipPath>
<clipPath id="clip1_92_802">
<rect width="15.9635" height="15.9635" fill="white" transform="translate(11.9727 11.9707)"/>
</clipPath>
<clipPath id="clip2_92_802">
<rect width="15.9635" height="15.9635" fill="white" transform="translate(11.9727 11.9707)"/>
</clipPath>
</defs>
</svg>
