<svg width="1379" height="566" viewBox="0 0 1379 566" fill="none" xmlns="http://www.w3.org/2000/svg">
<path d="M590.844 473.329C590.844 508.154 571.511 526.974 541.424 526.974C511.336 526.974 491.492 508.154 491.492 473.329V329.551H339.519L259.628 394.334V502.776C259.628 568.2 291.252 597.263 360.516 597.263H402.894V522.749H370.759C348.737 522.749 339.647 514.171 339.647 494.326V392.798H411.729V474.482C411.729 555.525 466.398 602.769 541.552 602.769C616.706 602.769 670.863 555.525 670.863 474.482V329.551H590.972V473.329H590.844Z" fill="white"/>
<path d="M895.296 353.109C878.14 334.288 852.918 324.174 822.319 324.174C747.805 324.174 689.807 384.861 689.807 463.087C689.807 541.314 747.805 602.641 822.319 602.641C855.094 602.641 882.365 590.35 899.521 569.353V597.264H975.187V300.488H895.296V353.109ZM833.073 526.975C796.072 526.975 769.826 500.728 769.826 463.087C769.826 425.446 796.712 399.2 833.073 399.2C869.434 399.2 895.808 426.086 895.808 463.087C895.808 500.088 868.922 526.975 833.073 526.975Z" fill="white"/>
<path d="M1074.03 390.877H994.142V597.263H1074.03V390.877Z" fill="white"/>
<path d="M1236.25 324.174C1155.71 324.174 1092.98 384.86 1092.98 463.087C1092.98 541.314 1155.71 602.641 1236.25 602.641C1316.78 602.641 1379 541.442 1379 463.087C1379 384.732 1316.78 324.174 1236.25 324.174ZM1236.25 527.487C1199.25 527.487 1173 500.6 1173 463.087C1173 425.574 1199.25 399.2 1236.25 399.2C1273.25 399.2 1298.98 426.086 1298.98 463.087C1298.98 500.088 1272.73 527.487 1236.25 527.487Z" fill="white"/>
<path d="M1074.03 300.488H994.142V370.009H1074.03V300.488Z" fill="white"/>
<path d="M193.306 331.215V346.323C170.133 332.367 140.429 324.558 108.422 324.558C76.414 324.558 50.2957 332.88 23.6653 349.78C0.74779 364.503 -10.903 385.372 -10.903 412.003C-10.903 423.91 -8.85452 434.536 -4.88557 443.626C-0.91661 452.716 4.20462 460.014 10.3501 465.263C16.3675 470.513 24.1774 475.25 33.9078 479.347C43.382 483.316 52.2162 486.389 60.1541 488.181C68.092 490.101 77.8223 491.766 89.2171 493.43C91.6497 493.814 95.6186 494.326 100.996 495.223C106.373 496.119 110.214 496.759 112.775 497.271C115.335 497.783 118.792 498.423 123.273 499.32C127.882 500.216 131.083 500.856 133.26 501.496C135.692 502.136 138.381 503.161 141.454 504.185C144.526 505.337 146.703 506.489 148.239 507.642C149.776 508.922 151.44 510.458 153.232 512.123C154.769 513.659 155.921 515.196 156.561 516.988C157.201 518.78 157.586 520.957 157.586 523.517C157.586 530.943 154.129 536.705 146.831 540.93C139.405 545.283 129.163 547.459 116.232 547.459C97.4111 547.459 83.7118 542.338 75.7738 532.096L75.2617 531.455H-15L-14.3598 533.632C-8.72649 552.196 2.92431 567.56 20.2085 579.339C46.8389 597.519 79.2307 606.738 116.616 606.738C150.8 606.738 182.424 598.031 208.158 581.643C231.587 566.664 243.494 544.899 243.494 516.86C243.494 503.929 241.19 492.406 236.581 482.676C231.971 472.945 226.594 465.135 220.321 459.502C214.175 453.869 205.597 448.876 194.842 444.651C184.344 440.425 174.87 437.481 166.932 435.816C159.122 434.152 149.264 432.36 136.717 430.311C133.9 429.927 130.315 429.415 125.578 428.519C120.969 427.622 117.256 426.982 114.567 426.47C111.879 425.958 108.422 425.446 104.325 424.678C100.356 424.038 97.155 423.397 94.8504 422.757C92.5459 422.117 89.9853 421.221 87.1686 420.325C84.3519 419.3 82.3034 418.404 80.7671 417.508C79.2307 416.612 77.6943 415.459 76.1579 414.179C74.7496 413.027 73.7254 411.747 73.0852 410.21C72.445 408.802 72.189 407.137 72.189 405.345C72.189 398.175 75.3898 392.926 81.7913 389.213C88.4489 385.372 97.5391 383.452 108.55 383.452C123.529 383.452 134.796 386.909 141.966 393.822L142.478 394.334H192.922H259.242V331.215H192.922H193.306Z" fill="white"/>
<path d="M875.716 168.104L774.828 0H860.737L912.973 98.1996L965.21 0H1051.12L950.23 168.104V273.218H875.716V168.104Z" fill="white"/>
<path d="M255.652 273.986V211.507L379.97 68.6248H260.902V0.896484H493.79V63.3755L369.472 206.258H499.167V273.986H255.78H255.652Z" fill="white"/>
<path d="M518.117 273.218V210.739L642.435 67.8563H523.366V0H756.255V62.479L631.937 205.361H761.632V273.09H518.245L518.117 273.218Z" fill="white"/>
<path d="M181.399 0.896484V144.675C181.399 179.499 162.067 198.32 131.979 198.32C101.892 198.32 82.0474 179.499 82.0474 144.675V0.896484H1.00391L2.15618 145.827C2.15618 226.871 56.8253 274.114 131.979 274.114C207.134 274.114 261.291 226.871 261.291 145.827V68.7528L206.621 0.896484H181.399Z" fill="white"/>
</svg>
