<svg width="176" height="177" viewBox="0 0 176 177" fill="none" xmlns="http://www.w3.org/2000/svg">
<g clip-path="url(#clip0_92_560)">
<g clip-path="url(#clip1_92_560)">
<g clip-path="url(#clip2_92_560)">
<path d="M83.4261 0.183575C154.326 -4.21167 198.332 71.1955 163.64 132.136C132.659 186.554 55.7691 192.94 17.7054 142.405C-24.5934 86.2482 13.4808 4.52014 83.4261 0.183575ZM82.8927 11.3851C11.1606 16.0577 -15.1468 109.782 42.8288 151.414C90.9417 185.968 157.046 155.228 164.002 97.295C169.949 47.7898 132.611 8.14196 82.8927 11.3851Z" fill="#CAF55E"/>
<path d="M134.607 98.3084C143.562 95.9988 141.834 105.925 139.951 111.116C126.408 148.405 74.2308 157.34 48.0567 128.051C44.8243 124.435 33.6388 110.092 44.3869 108.881C49.8383 108.267 50.729 113.339 53.4441 116.796C73.5 142.352 117.634 140.127 129.289 108.987C130.462 105.851 130.777 99.2952 134.607 98.3084Z" fill="#CAF55E"/>
<path d="M115.931 49.7636C137.481 46.0671 136.75 87.7205 117.942 89.6408C96.7395 91.8064 99.2837 52.6173 115.931 49.7636Z" fill="#CAF55E"/>
<path d="M58.458 66.1658C58.5007 65.6963 58.666 65.1896 58.9861 64.8482C61.0664 62.6346 66.0644 55.4283 67.8726 54.5055C70.0062 53.412 74.1667 53.6201 75.2603 56.047C77.9486 61.9892 67.4405 70.2676 64.9442 75.0683C67.3338 79.2661 79.1167 89.1234 72.5398 93.8493C66.0004 98.5486 61.7011 87.3579 58.2126 84.2961C57.7486 83.8907 57.6206 83.6027 56.8738 83.7787C54.5855 87.4805 48.6968 96.751 43.6668 94.5748C35.0416 90.841 47.6726 79.0474 50.329 74.9776C48.2433 71.3717 35.703 56.7565 44.0348 54.1428C50.665 52.0625 53.4067 61.6157 56.8631 65.3763C57.3539 65.9097 57.6206 66.3525 58.458 66.1658Z" fill="#CAF55E"/>
</g>
</g>
</g>
<defs>
<clipPath id="clip0_92_560">
<rect width="175.99" height="176.99" fill="white"/>
</clipPath>
<clipPath id="clip1_92_560">
<rect width="175.99" height="176.99" fill="white"/>
</clipPath>
<clipPath id="clip2_92_560">
<rect width="175.99" height="176.99" fill="white"/>
</clipPath>
</defs>
</svg>
