<svg width="40" height="40" viewBox="0 0 40 40" fill="none" xmlns="http://www.w3.org/2000/svg">
<rect x="0.399088" y="0.399088" width="39.1106" height="39.1106" rx="19.5553" stroke="#EAEAEA" stroke-width="0.798176"/>
<g clip-path="url(#clip0_92_814)">
<g clip-path="url(#clip1_92_814)">
<g clip-path="url(#clip2_92_814)">
<mask id="mask0_92_814" style="mask-type:luminance" maskUnits="userSpaceOnUse" x="12" y="12" width="16" height="16">
<path d="M27.6179 12.2949H12.293V27.6199H27.6179V12.2949Z" fill="white"/>
</mask>
<g mask="url(#mask0_92_814)">
<path d="M19.9554 27.6199C24.1873 27.6199 27.6179 24.1893 27.6179 19.9574C27.6179 15.7255 24.1873 12.2949 19.9554 12.2949C15.7236 12.2949 12.293 15.7255 12.293 19.9574C12.293 24.1893 15.7236 27.6199 19.9554 27.6199Z" fill="#1769FF"/>
<path d="M17.7064 16.4844C18.0368 16.4844 18.3384 16.5138 18.6112 16.572C18.8839 16.6303 19.1169 16.7259 19.3112 16.8589C19.5055 16.9919 19.6563 17.1685 19.7636 17.3892C19.8709 17.6098 19.9242 17.882 19.9242 18.2063C19.9242 18.5563 19.8445 18.8481 19.6857 19.0816C19.527 19.3152 19.2916 19.5065 18.9808 19.6554C19.4087 19.7786 19.728 19.9944 19.9389 20.3021C20.1498 20.6098 20.2552 20.9813 20.2552 21.416C20.2552 21.766 20.1871 22.0694 20.0511 22.3257C19.915 22.5819 19.7317 22.7909 19.5012 22.9527C19.2708 23.1152 19.0084 23.2347 18.7135 23.3126C18.4168 23.3904 18.111 23.4296 17.8045 23.4291H14.4385V16.4844H17.7064ZM17.5121 19.295C17.7842 19.295 18.008 19.23 18.1833 19.1007C18.3586 18.9707 18.4463 18.7604 18.4457 18.4686C18.4457 18.3068 18.4162 18.1738 18.358 18.0702C18.2998 17.9666 18.2219 17.8851 18.1244 17.8268C18.027 17.7686 17.9154 17.7281 17.7891 17.7055C17.6592 17.6828 17.5274 17.6711 17.395 17.6717H15.9661V19.2962L17.5121 19.295ZM17.5997 22.2417C17.7438 22.2423 17.8872 22.2276 18.0276 22.1981C18.1637 22.1687 18.2838 22.1203 18.3874 22.0522C18.491 21.9842 18.5738 21.8916 18.6357 21.7752C18.697 21.6587 18.7282 21.5091 18.7282 21.3277C18.7282 20.9716 18.6277 20.7165 18.4266 20.5645C18.2256 20.4119 17.9595 20.3358 17.6291 20.3358H15.9661V22.2423L17.5997 22.2417ZM22.1764 22.0958C22.3836 22.2968 22.6821 22.3973 23.0714 22.3973C23.3502 22.3973 23.5899 22.3275 23.791 22.1883C23.992 22.0492 24.1153 21.9014 24.1606 21.7457H25.3762C25.1819 22.349 24.8834 22.7799 24.4812 23.0392C24.0791 23.2985 23.593 23.4284 23.0223 23.4284C22.6269 23.4284 22.2701 23.3653 21.9526 23.239C21.6351 23.1127 21.366 22.9325 21.1453 22.699C20.9247 22.4654 20.7542 22.1871 20.6347 21.8628C20.5151 21.5386 20.4551 21.1818 20.4551 20.7932C20.4551 20.4174 20.5164 20.0674 20.6396 19.7431C20.7628 19.4188 20.9381 19.1387 21.1649 18.902C21.3918 18.6654 21.6627 18.4791 21.9771 18.343C22.2916 18.2069 22.6404 18.1389 23.0229 18.1389C23.4508 18.1389 23.8235 18.2216 24.1416 18.3871C24.4591 18.5526 24.7203 18.7745 24.9245 19.0535C25.1286 19.3324 25.2763 19.6499 25.367 20.0066C25.4577 20.3634 25.4902 20.7361 25.4645 21.1254H21.8367C21.8557 21.5711 21.9692 21.8953 22.1764 22.0958ZM23.7377 19.4507C23.5721 19.2692 23.3209 19.1785 22.9837 19.1785C22.763 19.1785 22.5798 19.2159 22.4344 19.2901C22.2886 19.3649 22.172 19.4568 22.0844 19.5671C21.9968 19.6775 21.9355 19.794 21.8999 19.9172C21.8644 20.0404 21.8429 20.1507 21.8367 20.2476H24.0834C24.0178 19.8982 23.9026 19.6321 23.7377 19.4507ZM21.6002 16.8368H24.4071V17.6154H21.6002V16.8368Z" fill="white"/>
</g>
</g>
</g>
</g>
<defs>
<clipPath id="clip0_92_814">
<rect width="15.9635" height="15.9635" fill="white" transform="translate(11.9727 11.9707)"/>
</clipPath>
<clipPath id="clip1_92_814">
<rect width="15.9635" height="15.9635" fill="white" transform="translate(11.9727 11.9707)"/>
</clipPath>
<clipPath id="clip2_92_814">
<rect width="15.9635" height="15.9635" fill="white" transform="translate(11.9727 11.9707)"/>
</clipPath>
</defs>
</svg>
