<svg width="117" height="102" viewBox="0 0 117 102" fill="none" xmlns="http://www.w3.org/2000/svg">
<g clip-path="url(#clip0_92_392)">
<g clip-path="url(#clip1_92_392)">
<g clip-path="url(#clip2_92_392)">
<path d="M6.84707 69.8777C1.06504 63.597 1.91573 55.03 1.35745 47.0478C0.699502 37.6632 0.37386 28.2587 0.041559 18.8542C-0.0381932 16.5081 -0.10466 14.0622 0.865659 11.9221C2.45406 8.41952 6.4018 6.62502 10.1767 5.86735C26.8317 2.53755 43.7658 -0.340289 60.8128 0.0319028C76.8629 0.384156 96.276 3.77377 108.983 14.4212C114.127 18.7346 115.769 23.8456 116.041 30.3058C116.367 38.0154 116.679 45.8448 114.891 53.3551C113.103 60.8654 108.924 68.1431 102.191 71.9248C96.8873 74.9024 90.5139 75.4739 85.1438 78.3385C79.8603 81.1565 79.4415 88.062 79.3817 94.6285C79.3153 101.907 69.1535 103.615 66.7477 96.742C64.2288 89.5308 62.0622 81.3359 53.223 78.5379C39.0537 74.0517 18.8831 81.994 7.31235 70.3497C7.15284 70.1901 6.99994 70.0306 6.85372 69.8711L6.84707 69.8777Z" fill="#CAF55E"/>
<path d="M29.5016 28.5246C29.0563 35.0579 32.6318 41.1991 36.2406 46.3633C41.4311 53.7938 48.044 66.0496 58.9234 65.2188C68.7596 64.4677 76.7348 55.1164 80.6294 46.7819C84.3711 38.7865 86.551 22.3834 73.2457 22.842C65.5895 23.1079 58.877 29.8206 50.9815 27.6806C46.0634 26.3446 41.7036 22.2505 36.4201 22.2638C31.5619 22.2704 29.7341 25.0087 29.4949 28.5246H29.5016Z" fill="#E6E6E6"/>
</g>
</g>
</g>
<defs>
<clipPath id="clip0_92_392">
<rect width="116.99" height="101.99" fill="white"/>
</clipPath>
<clipPath id="clip1_92_392">
<rect width="117" height="101.99" fill="white"/>
</clipPath>
<clipPath id="clip2_92_392">
<rect width="116.99" height="101.991" fill="white" transform="translate(0 -0.000610352)"/>
</clipPath>
</defs>
</svg>
