<svg width="63" height="64" viewBox="0 0 63 64" fill="none" xmlns="http://www.w3.org/2000/svg">
<path d="M62.7 31.4008C62.7 49.0008 48.5 63.2008 30.9 63.2008C13.3 63.2008 3.4 52.9008 0 39.0008L9.40002 36.8008C11.8 46.4008 20.5 53.6008 30.9 53.6008C41.3 53.6008 53.1 43.7008 53.1 31.4008C53.1 19.1008 52.3 24.5008 50.8 21.6008L59.4 17.3008C61.5 21.5008 62.7 26.3008 62.7 31.4008Z" fill="#CAF55E"/>
<path d="M39.2996 5.20078L31.3997 35.6008L39.2996 37.6008L36.8997 46.8008L19.5996 42.2008L30.1996 2.80078L39.2996 5.20078Z" fill="#CAF55E"/>
<path d="M19.7002 42L27.7002 11.6L17.7002 9.10001L20.0002 0L39.5002 5.10001L28.8002 44.5L19.7002 42Z" fill="#CAF55E"/>
<path d="M41.9 30.8C45.4346 30.8 48.3 27.9346 48.3 24.4C48.3 20.8654 45.4346 18 41.9 18C38.3654 18 35.5 20.8654 35.5 24.4C35.5 27.9346 38.3654 30.8 41.9 30.8Z" fill="#CAF55E"/>
<path d="M21.9004 18.5996H10.4004V30.0996H21.9004V18.5996Z" fill="#CAF55E"/>
</svg>
