<svg width="387" height="402" viewBox="0 0 387 402" fill="none" xmlns="http://www.w3.org/2000/svg">
<g clip-path="url(#clip0_92_932)">
<g clip-path="url(#clip1_92_932)">
<g clip-path="url(#clip2_92_932)">
<path d="M343.038 130.221C305.659 60.6984 221.156 -0.677829 140.139 31.711C139.813 31.833 139.512 31.9896 139.226 32.125C73.2856 61.1001 37.1107 140.103 30.0632 208.234C26.6715 241.137 29.7899 275.926 44.3425 306.043C61.5278 341.614 92.6264 364.683 130.659 374.361C196.891 391.216 273.881 375.426 321.933 325.125C371.615 273.129 376.392 192.235 343.038 130.221ZM322.339 298.067C286.926 347.944 222.831 368.51 163.655 362.831C126.616 359.278 90.9941 346.023 68.9218 314.698C51.6979 290.232 45.3018 259.217 45.7233 229.701C46.6884 161.511 80.2649 75.9427 146.879 47.2917C211.959 21.2746 280.177 66.6218 316.425 119.013C352.672 171.406 360.47 244.362 322.32 298.069L322.339 298.067Z" fill="#CAF55E"/>
<path d="M153.804 220.681C183.701 217.983 186.159 143.757 164.585 146.866C154.339 148.344 155.883 161.494 151.774 168.298C146.769 163.841 144.213 157.44 138.664 153.46C120.159 140.199 114.094 164.244 116.253 177.841C118.884 194.399 133.385 222.522 153.804 220.681Z" fill="#CAF55E"/>
<path d="M268.979 132.194C258.734 133.672 260.277 146.822 256.168 153.626C251.162 149.169 248.606 142.769 243.059 138.788C224.553 125.527 218.489 149.572 220.647 163.169C223.278 179.727 237.78 207.851 258.199 206.009C288.094 203.312 290.553 129.085 268.979 132.194Z" fill="#CAF55E"/>
<path d="M266.876 264.37C249.051 283.174 231.334 305.334 204.305 310.275C192.797 312.388 180.517 311.314 170.578 304.676C159.904 297.551 155.132 286.624 147.624 276.826C143.8 271.841 134.753 275.341 136.039 281.786C142.05 312.227 171.295 332.129 201.307 329.853C235.348 327.258 262.294 301.402 283.338 276.775C292.102 266.517 275.799 254.966 266.876 264.37Z" fill="#CAF55E"/>
</g>
</g>
</g>
<defs>
<clipPath id="clip0_92_932">
<rect width="339.999" height="357.944" fill="white" transform="translate(0 47.3187) rotate(-8)"/>
</clipPath>
<clipPath id="clip1_92_932">
<rect width="339.999" height="357.944" fill="white" transform="translate(0 47.3187) rotate(-8)"/>
</clipPath>
<clipPath id="clip2_92_932">
<rect width="340" height="357.947" fill="white" transform="translate(0 47.3167) rotate(-8)"/>
</clipPath>
</defs>
</svg>
